PathFileType   4   (X/Y/Z)
DataRate	CameraRate	NumFrames	NumMarkers	Units	OrigDataRate	OrigDataStartFrame	OrigNumFrames
120.0	120.0	5	37	mm	120.0	44	173
Frame#	Time	midhip	hip_r	hip_l	knee_r	knee_l	ankle_r	ankle_l	midasis	asis_r	asis_l	psis_r	psis_l	epicondLat_r	epicondLat_l	epicondMed_r	epicondMed_l	malleolusLat_r	malleolusLat_l	malleolusMedv_r	malleolusMedv_l	neck	subclavicle_r	subclavicle_l	sternalnotch	xyphoidprocess	thighwand_r	thighwand_l	upperleg1_r	upperleg1_l	upperleg2_r	upperleg2_l	shankwand_r	shankwand_l	lowerleg1_r	lowerleg1_l	toe_r	toe_l
 	 	X1	Y1	Z1	X2	Y2	Z2	X3	Y3	Z3	X4	Y4	Z4	X5	Y5	Z5	X6	Y6	Z6	X7	Y7	Z7	X8	Y8	Z8	X9	Y9	Z9	X10	Y10	Z10	X11	Y11	Z11	X12	Y12	Z12	X13	Y13	Z13	X14	Y14	Z14	X15	Y15	Z15	X16	Y16	Z16	X17	Y17	Z17	X18	Y18	Z18	X19	Y19	Z19	X20	Y20	Z20	X21	Y21	Z21	X22	Y22	Z22	X23	Y23	Z23	X24	Y24	Z24	X25	Y25	Z25	X26	Y26	Z26	X27	Y27	Z27	X28	Y28	Z28	X29	Y29	Z29	X30	Y30	Z30	X31	Y31	Z31	X32	Y32	Z32	X33	Y33	Z33	X34	Y34	Z34	X35	Y35	Z35	X36	Y36	Z36	X37	Y37	Z37

	44	0.59167	-1380.090	623.973	259.482	-1375.653	635.532	317.447	-1375.841	638.036	200.029	-1370.671	340.621	293.716	-1249.494	357.551	191.384	-1434.930	52.860	272.095	-1238.541	72.334	171.671	-1337.581	702.673	260.082	-1337.435	700.729	351.289	-1337.728	704.618	168.874	-1476.447	709.158	300.380	-1471.932	704.974	217.408	-1379.882	336.851	338.626	-1252.121	357.845	143.457	-1373.879	344.449	252.344	-1240.149	356.215	232.020	-1439.170	51.313	305.290	-1252.727	73.808	142.468	-1436.720	60.248	244.440	-1237.203	72.033	205.416	-1390.338	1028.196	283.938	-1308.846	943.172	310.809	-1321.383	949.553	221.576	-1325.767	961.238	276.583	-1310.902	821.065	259.248	-1253.396	430.232	300.841	-1225.911	459.904	86.034	-1326.426	480.193	338.108	-1253.338	505.958	168.462	-1341.771	394.093	332.172	-1218.330	430.613	184.266	-1397.190	118.060	376.168	-1148.347	182.909	187.405	-1400.715	191.328	323.414	-1212.285	236.565	178.761	-1349.494	41.270	264.677	-1157.187	58.931	161.604
	45	0.60000	-1376.093	623.610	259.462	-1371.786	635.218	317.343	-1371.755	637.618	199.923	-1368.881	340.264	293.835	-1244.633	357.128	192.489	-1434.780	52.854	272.074	-1223.205	71.971	172.448	-1333.571	702.287	259.990	-1333.595	700.423	351.200	-1333.546	704.152	168.780	-1472.604	708.961	300.506	-1467.638	704.537	217.022	-1378.243	336.594	338.722	-1247.441	357.126	144.571	-1372.109	344.423	252.451	-1236.922	355.394	233.092	-1439.039	51.317	305.267	-1237.024	72.999	143.050	-1436.404	60.331	244.442	-1222.160	71.803	206.218	-1386.007	1027.922	283.354	-1304.586	942.709	310.248	-1317.197	949.015	221.007	-1321.554	960.753	276.008	-1306.919	820.549	258.818	-1250.975	428.972	301.218	-1222.092	458.828	87.104	-1323.483	479.670	338.392	-1249.960	505.081	169.253	-1339.654	393.668	332.363	-1214.935	429.687	185.322	-1396.660	117.876	376.296	-1137.581	186.124	189.627	-1399.848	191.208	323.511	-1203.658	237.242	180.248	-1349.467	41.159	264.638	-1141.160	61.312	163.645
	46	0.60833	-1372.042	623.208	259.444	-1367.871	634.876	317.247	-1367.649	637.170	199.824	-1367.004	339.877	293.939	-1239.826	356.670	193.557	-1434.622	52.854	272.036	-1208.141	71.964	173.473	-1329.500	701.857	259.894	-1329.672	700.076	351.110	-1329.327	703.639	168.678	-1468.801	708.804	300.812	-1463.334	704.080	216.687	-1376.522	336.304	338.802	-1242.855	356.361	145.654	-1370.026	344.226	252.470	-1233.582	354.400	234.006	-1438.890	51.327	305.228	-1221.635	72.548	143.912	-1436.111	60.389	244.441	-1207.407	71.923	207.314	-1381.682	1027.554	282.763	-1300.316	942.240	309.676	-1312.969	948.437	220.422	-1317.284	960.238	275.421	-1302.825	820.012	258.413	-1248.486	427.671	301.597	-1218.353	457.694	88.045	-1320.608	479.071	338.633	-1246.495	504.047	170.049	-1337.407	393.149	332.496	-1211.498	428.668	186.240	-1396.077	117.657	376.400	-1127.117	189.469	191.784	-1398.868	191.083	323.591	-1192.530	238.922	182.488	-1349.439	41.043	264.595	-1125.527	64.014	165.826
	47	0.61667	-1368.098	622.803	259.544	-1363.885	634.496	317.154	-1363.503	636.680	199.730	-1365.046	339.457	294.027	-1235.083	356.176	194.600	-1434.463	52.860	271.980	-1193.403	72.285	174.724	-1325.366	701.384	259.791	-1325.663	699.687	351.018	-1325.069	703.081	168.565	-1464.960	708.620	301.164	-1459.042	703.595	216.409	-1374.720	335.980	338.864	-1238.357	355.553	146.716	-1367.763	343.878	252.417	-1230.186	353.453	234.979	-1438.731	51.340	305.172	-1206.629	72.422	145.037	-1436.048	60.411	244.425	-1192.885	72.403	208.633	-1377.296	1027.089	282.094	-1296.035	941.703	309.106	-1308.722	947.794	219.836	-1312.954	959.688	274.819	-1298.736	819.407	258.008	-1245.930	426.323	301.973	-1214.658	456.510	88.874	-1317.893	478.274	338.853	-1242.864	502.964	170.766	-1335.116	392.644	332.600	-1207.997	427.657	187.101	-1395.450	117.395	376.478	-1116.958	192.917	193.828	-1397.968	190.731	323.775	-1183.387	240.073	184.208	-1349.407	40.930	264.548	-1110.335	66.998	168.096
	48	0.62500	-1364.184	622.376	259.707	-1359.820	634.072	317.061	-1359.306	636.148	199.636	-1363.009	339.003	294.100	-1230.402	355.648	195.624	-1434.317	52.875	271.908	-1179.039	72.902	176.172	-1321.167	700.866	259.679	-1321.567	699.253	350.920	-1320.768	702.479	168.439	-1461.048	708.388	301.499	-1454.769	703.074	216.186	-1372.841	335.622	338.909	-1233.933	354.709	147.764	-1365.500	343.426	252.429	-1226.950	352.562	235.873	-1438.575	51.361	305.101	-1192.061	72.585	146.397	-1436.070	60.271	244.518	-1178.700	73.214	210.150	-1372.830	1026.560	281.392	-1291.668	941.131	308.525	-1304.356	947.088	219.254	-1308.571	959.099	274.207	-1294.512	818.753	257.635	-1243.311	424.929	302.341	-1210.971	455.281	89.613	-1315.094	477.443	339.022	-1239.315	501.968	171.304	-1332.801	392.059	332.724	-1204.564	426.610	187.875	-1394.792	117.089	376.534	-1107.109	196.436	195.720	-1397.225	190.158	324.048	-1175.563	240.951	185.508	-1349.369	40.824	264.496	-1095.630	70.216	170.402
